<mxfile host="app.diagrams.net" agent="Mozilla/5.0 (Windows NT 10.0; Win64; x64) AppleWebKit/537.36 (KHTML, like Gecko) Chrome/136.0.0.0 Safari/537.36" version="27.1.3">
  <diagram name="PÃ¡gina-1" id="Wy1xzq8sEiM7D3Ojbia0">
    <mxGraphModel dx="983" dy="619" grid="1" gridSize="10" guides="1" tooltips="1" connect="1" arrows="1" fold="1" page="1" pageScale="1" pageWidth="827" pageHeight="1169" math="0" shadow="0">
      <root>
        <mxCell id="0" />
        <mxCell id="1" parent="0" />
        <mxCell id="J0ZxGNbLXhjSqqrhM451-3" style="edgeStyle=orthogonalEdgeStyle;rounded=0;orthogonalLoop=1;jettySize=auto;html=1;entryX=0;entryY=0.25;entryDx=0;entryDy=0;curved=1;exitX=0.75;exitY=1;exitDx=0;exitDy=0;" edge="1" parent="1" source="J0ZxGNbLXhjSqqrhM451-1" target="J0ZxGNbLXhjSqqrhM451-9">
          <mxGeometry relative="1" as="geometry">
            <Array as="points">
              <mxPoint x="150" y="180" />
            </Array>
          </mxGeometry>
        </mxCell>
        <mxCell id="J0ZxGNbLXhjSqqrhM451-4" style="edgeStyle=orthogonalEdgeStyle;rounded=0;orthogonalLoop=1;jettySize=auto;html=1;entryX=0.221;entryY=0.242;entryDx=0;entryDy=0;curved=1;exitX=1;exitY=0;exitDx=0;exitDy=0;startArrow=classic;startFill=1;endArrow=none;entryPerimeter=0;" edge="1" parent="1" target="J0ZxGNbLXhjSqqrhM451-2">
          <mxGeometry relative="1" as="geometry">
            <mxPoint x="150" y="120" as="sourcePoint" />
            <mxPoint x="270" y="120" as="targetPoint" />
            <Array as="points">
              <mxPoint x="150" y="100" />
              <mxPoint x="348" y="100" />
              <mxPoint x="348" y="119" />
            </Array>
          </mxGeometry>
        </mxCell>
        <mxCell id="J0ZxGNbLXhjSqqrhM451-5" value="No" style="edgeLabel;html=1;align=center;verticalAlign=middle;resizable=0;points=[];" vertex="1" connectable="0" parent="J0ZxGNbLXhjSqqrhM451-4">
          <mxGeometry y="1" relative="1" as="geometry">
            <mxPoint as="offset" />
          </mxGeometry>
        </mxCell>
        <mxCell id="J0ZxGNbLXhjSqqrhM451-1" value="processByte(byte)" style="rounded=0;whiteSpace=wrap;html=1;" vertex="1" parent="1">
          <mxGeometry x="60" y="120" width="120" height="40" as="geometry" />
        </mxCell>
        <mxCell id="J0ZxGNbLXhjSqqrhM451-7" style="edgeStyle=orthogonalEdgeStyle;rounded=0;orthogonalLoop=1;jettySize=auto;html=1;entryX=0;entryY=0.5;entryDx=0;entryDy=0;" edge="1" parent="1" source="J0ZxGNbLXhjSqqrhM451-2" target="J0ZxGNbLXhjSqqrhM451-6">
          <mxGeometry relative="1" as="geometry" />
        </mxCell>
        <mxCell id="J0ZxGNbLXhjSqqrhM451-8" value="yes" style="edgeLabel;html=1;align=center;verticalAlign=middle;resizable=0;points=[];" vertex="1" connectable="0" parent="J0ZxGNbLXhjSqqrhM451-7">
          <mxGeometry x="-0.0815" y="-1" relative="1" as="geometry">
            <mxPoint as="offset" />
          </mxGeometry>
        </mxCell>
        <mxCell id="J0ZxGNbLXhjSqqrhM451-2" value="Frame complete?" style="rhombus;whiteSpace=wrap;html=1;" vertex="1" parent="1">
          <mxGeometry x="330" y="100" width="80" height="80" as="geometry" />
        </mxCell>
        <mxCell id="J0ZxGNbLXhjSqqrhM451-13" style="edgeStyle=orthogonalEdgeStyle;rounded=0;orthogonalLoop=1;jettySize=auto;html=1;entryX=0;entryY=0.5;entryDx=0;entryDy=0;" edge="1" parent="1" source="J0ZxGNbLXhjSqqrhM451-6" target="J0ZxGNbLXhjSqqrhM451-11">
          <mxGeometry relative="1" as="geometry" />
        </mxCell>
        <mxCell id="J0ZxGNbLXhjSqqrhM451-6" value="decode()" style="rounded=0;whiteSpace=wrap;html=1;" vertex="1" parent="1">
          <mxGeometry x="464" y="120" width="120" height="40" as="geometry" />
        </mxCell>
        <mxCell id="J0ZxGNbLXhjSqqrhM451-10" style="edgeStyle=orthogonalEdgeStyle;rounded=0;orthogonalLoop=1;jettySize=auto;html=1;entryX=0;entryY=1;entryDx=0;entryDy=0;curved=1;" edge="1" parent="1" source="J0ZxGNbLXhjSqqrhM451-9" target="J0ZxGNbLXhjSqqrhM451-2">
          <mxGeometry relative="1" as="geometry">
            <Array as="points">
              <mxPoint x="350" y="190" />
            </Array>
          </mxGeometry>
        </mxCell>
        <mxCell id="J0ZxGNbLXhjSqqrhM451-9" value="State machine" style="rounded=0;whiteSpace=wrap;html=1;" vertex="1" parent="1">
          <mxGeometry x="170" y="170" width="120" height="40" as="geometry" />
        </mxCell>
        <mxCell id="J0ZxGNbLXhjSqqrhM451-11" value="getRcInfo(RcInfo)" style="rounded=0;whiteSpace=wrap;html=1;" vertex="1" parent="1">
          <mxGeometry x="650" y="120" width="120" height="40" as="geometry" />
        </mxCell>
      </root>
    </mxGraphModel>
  </diagram>
</mxfile>
